<svg width="60" height="33" viewBox="0 0 60 33" fill="none" xmlns="http://www.w3.org/2000/svg">
<path fill-rule="evenodd" clip-rule="evenodd" d="M7.7129 24.1885L15.0017 5.28049L14.2736 4.8161C13.7499 5.34293 13.0568 5.78124 12.7309 6.40742C8.86651 13.8288 4.94963 21.229 1.29059 28.7508C0.0122127 31.3805 1.04328 32.4936 4.02119 32.2624C10.3988 31.7675 16.774 31.2118 23.1499 30.6735C23.4842 30.6466 23.8499 30.6349 24.14 30.489C25.342 29.894 26.5227 29.2506 27.7165 28.6247C26.3878 27.6164 25.1595 25.9416 23.7094 25.7437C21.2734 25.4121 18.7016 26.0098 16.1882 26.2377C14.8836 26.3591 13.5801 26.5276 11.8892 26.7121C23.9687 10.7079 40.0156 3.08783 59.0717 0.978179C49.1884 0.424325 39.8029 2.32553 30.8355 6.47728C21.8681 10.629 14.5337 16.9648 7.71004 24.1865" fill="#2A8F9E"/>
</svg>
